<mxfile host="app.diagrams.net" agent="Mozilla/5.0 (Windows NT 10.0; Win64; x64) AppleWebKit/537.36 (KHTML, like Gecko) Chrome/134.0.0.0 YaBrowser/25.4.0.0 Safari/537.36" version="27.0.9">
  <diagram name="Page-1" id="qyMmAMzMx9ateU6wqAqE">
    <mxGraphModel dx="786" dy="462" grid="1" gridSize="10" guides="1" tooltips="1" connect="1" arrows="1" fold="1" page="1" pageScale="1" pageWidth="827" pageHeight="1169" background="light-dark(#FFFFFF,#F9F9F9)" math="0" shadow="0">
      <root>
        <mxCell id="0" />
        <mxCell id="1" parent="0" />
        <mxCell id="9nsicKDulVH2mRksZZX4-1" value="" style="edgeStyle=orthogonalEdgeStyle;rounded=0;orthogonalLoop=1;jettySize=auto;html=1;fontSize=18;fontFamily=Times New Roman;" edge="1" parent="1" source="9nsicKDulVH2mRksZZX4-2" target="9nsicKDulVH2mRksZZX4-3">
          <mxGeometry relative="1" as="geometry" />
        </mxCell>
        <mxCell id="9nsicKDulVH2mRksZZX4-2" value="&lt;font style=&quot;color: light-dark(rgb(0, 0, 0), rgb(0, 0, 0));&quot;&gt;Начало&lt;/font&gt;" style="strokeWidth=2;html=1;shape=mxgraph.flowchart.terminator;whiteSpace=wrap;fillColor=light-dark(#FFFFFF,#FFFFFF);strokeColor=light-dark(#000000,#000000);fontSize=18;fontFamily=Times New Roman;" vertex="1" parent="1">
          <mxGeometry x="310" y="20" width="160" height="90" as="geometry" />
        </mxCell>
        <mxCell id="9nsicKDulVH2mRksZZX4-3" value="&lt;font style=&quot;color: light-dark(rgb(0, 0, 0), rgb(3, 3, 3));&quot;&gt;Получить вектор признаков SURF&lt;/font&gt;" style="rounded=0;whiteSpace=wrap;html=1;fillColor=light-dark(#FFFFFF,#FBFBFB);strokeColor=light-dark(#000000,#060606);strokeWidth=2;fontSize=18;fontFamily=Times New Roman;" vertex="1" parent="1">
          <mxGeometry x="310" y="180" width="160" height="100" as="geometry" />
        </mxCell>
        <mxCell id="9nsicKDulVH2mRksZZX4-4" value="" style="endArrow=classic;html=1;rounded=0;strokeColor=light-dark(#000000,#000000);entryX=0.5;entryY=0;entryDx=0;entryDy=0;fontSize=18;fontFamily=Times New Roman;" edge="1" parent="1" target="9nsicKDulVH2mRksZZX4-3">
          <mxGeometry width="50" height="50" relative="1" as="geometry">
            <mxPoint x="389.5" y="110" as="sourcePoint" />
            <mxPoint x="389.5" y="160" as="targetPoint" />
          </mxGeometry>
        </mxCell>
        <mxCell id="9nsicKDulVH2mRksZZX4-5" value="&lt;font style=&quot;color: light-dark(rgb(0, 0, 0), rgb(6, 6, 6));&quot;&gt;Получить вектор признаков MobileNetV2&lt;/font&gt;" style="rounded=0;whiteSpace=wrap;html=1;fillColor=light-dark(#FFFFFF,#FBFBFB);strokeColor=light-dark(#000000,#060606);strokeWidth=2;fontSize=18;fontFamily=Times New Roman;" vertex="1" parent="1">
          <mxGeometry x="310" y="350" width="160" height="100" as="geometry" />
        </mxCell>
        <mxCell id="9nsicKDulVH2mRksZZX4-6" value="" style="endArrow=classic;html=1;rounded=0;strokeColor=light-dark(#000000,#000000);entryX=0.5;entryY=0;entryDx=0;entryDy=0;fontSize=18;fontFamily=Times New Roman;" edge="1" parent="1">
          <mxGeometry width="50" height="50" relative="1" as="geometry">
            <mxPoint x="389.5" y="280" as="sourcePoint" />
            <mxPoint x="390" y="350" as="targetPoint" />
          </mxGeometry>
        </mxCell>
        <mxCell id="9nsicKDulVH2mRksZZX4-7" value="&lt;font style=&quot;color: light-dark(rgb(0, 0, 0), rgb(0, 0, 0));&quot;&gt;Установить параметры PCA: количество компонент, критерии&lt;/font&gt;" style="rounded=0;whiteSpace=wrap;html=1;fillColor=light-dark(#FFFFFF,#FBFBFB);strokeColor=light-dark(#000000,#060606);strokeWidth=2;fontSize=18;fontFamily=Times New Roman;" vertex="1" parent="1">
          <mxGeometry x="310" y="520" width="160" height="100" as="geometry" />
        </mxCell>
        <mxCell id="9nsicKDulVH2mRksZZX4-8" value="" style="endArrow=classic;html=1;rounded=0;strokeColor=light-dark(#000000,#000000);entryX=0.5;entryY=0;entryDx=0;entryDy=0;fontSize=18;fontFamily=Times New Roman;" edge="1" parent="1">
          <mxGeometry width="50" height="50" relative="1" as="geometry">
            <mxPoint x="389.5" y="450" as="sourcePoint" />
            <mxPoint x="390" y="520" as="targetPoint" />
            <Array as="points">
              <mxPoint x="390" y="500" />
            </Array>
          </mxGeometry>
        </mxCell>
        <mxCell id="9nsicKDulVH2mRksZZX4-9" value="" style="endArrow=classic;html=1;rounded=0;strokeColor=light-dark(#000000,#000000);entryX=0.5;entryY=0;entryDx=0;entryDy=0;fontSize=18;fontFamily=Times New Roman;" edge="1" parent="1">
          <mxGeometry width="50" height="50" relative="1" as="geometry">
            <mxPoint x="389.5" y="620" as="sourcePoint" />
            <mxPoint x="390" y="690" as="targetPoint" />
            <Array as="points">
              <mxPoint x="390" y="670" />
            </Array>
          </mxGeometry>
        </mxCell>
        <mxCell id="9nsicKDulVH2mRksZZX4-10" value="&lt;font style=&quot;color: light-dark(rgb(0, 0, 0), rgb(0, 0, 0));&quot;&gt;Снижение размерности признаков через PCA&lt;/font&gt;" style="rounded=0;whiteSpace=wrap;html=1;fillColor=light-dark(#FFFFFF,#FBFBFB);strokeColor=light-dark(#000000,#060606);strokeWidth=2;fontSize=18;fontFamily=Times New Roman;" vertex="1" parent="1">
          <mxGeometry x="310" y="690" width="160" height="100" as="geometry" />
        </mxCell>
        <mxCell id="9nsicKDulVH2mRksZZX4-11" value="" style="endArrow=classic;html=1;rounded=0;strokeColor=light-dark(#000000,#000000);entryX=0.5;entryY=0;entryDx=0;entryDy=0;fontSize=18;fontFamily=Times New Roman;" edge="1" parent="1">
          <mxGeometry width="50" height="50" relative="1" as="geometry">
            <mxPoint x="389.5" y="790" as="sourcePoint" />
            <mxPoint x="390" y="860" as="targetPoint" />
            <Array as="points">
              <mxPoint x="390" y="840" />
            </Array>
          </mxGeometry>
        </mxCell>
        <mxCell id="9nsicKDulVH2mRksZZX4-12" value="&lt;div&gt;&lt;font style=&quot;&quot;&gt;&lt;font style=&quot;color: light-dark(rgb(0, 0, 0), rgb(4, 4, 4));&quot;&gt;&lt;br&gt;&lt;/font&gt;&lt;/font&gt;&lt;/div&gt;&lt;font style=&quot;&quot;&gt;&lt;font style=&quot;color: light-dark(rgb(0, 0, 0), rgb(4, 4, 4));&quot;&gt;Сниженные признаки SURF и&lt;br&gt;MobileNetV2&lt;/font&gt;&lt;br&gt;&lt;/font&gt;&lt;div&gt;&lt;font color=&quot;#000000&quot;&gt;&lt;br&gt;&lt;/font&gt;&lt;div&gt;&lt;font style=&quot;color: light-dark(rgb(0, 0, 0), rgb(0, 0, 0));&quot;&gt;&lt;br&gt;&lt;/font&gt;&lt;/div&gt;&lt;/div&gt;" style="rounded=0;whiteSpace=wrap;html=1;fillColor=light-dark(#FFFFFF,#FBFBFB);strokeColor=light-dark(#000000,#060606);strokeWidth=2;fontSize=18;fontFamily=Times New Roman;" vertex="1" parent="1">
          <mxGeometry x="310" y="860" width="160" height="100" as="geometry" />
        </mxCell>
        <mxCell id="9nsicKDulVH2mRksZZX4-14" value="&lt;span&gt;&lt;font style=&quot;color: light-dark(rgb(0, 0, 0), rgb(3, 3, 3));&quot;&gt;Конец&lt;/font&gt;&lt;/span&gt;" style="strokeWidth=2;html=1;shape=mxgraph.flowchart.terminator;whiteSpace=wrap;fillColor=light-dark(#FFFFFF,#FFFFFF);strokeColor=light-dark(#000000,#000000);fontSize=18;fontFamily=Times New Roman;" vertex="1" parent="1">
          <mxGeometry x="310" y="1030" width="160" height="90" as="geometry" />
        </mxCell>
        <mxCell id="9nsicKDulVH2mRksZZX4-16" value="" style="endArrow=classic;html=1;rounded=0;strokeColor=light-dark(#000000,#000000);entryX=0.5;entryY=0;entryDx=0;entryDy=0;fontSize=18;fontFamily=Times New Roman;" edge="1" parent="1">
          <mxGeometry width="50" height="50" relative="1" as="geometry">
            <mxPoint x="389.5" y="960" as="sourcePoint" />
            <mxPoint x="390" y="1030" as="targetPoint" />
            <Array as="points">
              <mxPoint x="390" y="1010" />
            </Array>
          </mxGeometry>
        </mxCell>
      </root>
    </mxGraphModel>
  </diagram>
</mxfile>
